# xmcd
#
# Track frame offsets: 
#        150
#        34912
#        81650
#        126750
#        161962
#        198797
#        236812
#        271537
#
# Disc length: 4188 seconds
#
# Revision: 1
# Processed by: cddbd v1.5.2PL0 Copyright (c) Steve Scherf et al.
# Submitted via: ExactAudioCopy v0.99pb5
#
DISCID=6b105a08
DTITLE=Donald Byrd - Landmarks
DYEAR=1998
DGENRE=Jazz
TTITLE0=theme for malcom
TTITLE1=pomponio
TTITLE2=the onliest
TTITLE3=voyage à deux
TTITLE4=around the corner
TTITLE5=king arthur
TTITLE6=alter ego
TTITLE7=blue monk
EXTD=
EXTT0=
EXTT1=
EXTT2=
EXTT3=
EXTT4=
EXTT5=
EXTT6=
EXTT7=
PLAYORDER=
